<svg xmlns="http://www.w3.org/2000/svg" version="1.1" xmlns:xlink="http://www.w3.org/1999/xlink" xmlns:svgjs="http://svgjs.dev/svgjs" width="1000" height="570" viewBox="0 0 1000 570"><g transform="matrix(1,0,0,1,-0.6060606060606233,0.16792053583708366)"><svg viewBox="0 0 396 226" data-background-color="#ffffff" preserveAspectRatio="xMidYMid meet" height="570" width="1000" xmlns="http://www.w3.org/2000/svg" xmlns:xlink="http://www.w3.org/1999/xlink"><g id="tight-bounds" transform="matrix(1,0,0,1,0.2400000000000091,-0.06657901947224332)"><svg viewBox="0 0 395.52 226.1331580389445" height="226.1331580389445" width="395.52"><g><svg viewBox="0 0 395.52 226.1331580389445" height="226.1331580389445" width="395.52"><g transform="matrix(1,0,0,1,0,139.75936368043676)"><svg viewBox="0 0 395.52 86.37379435850772" height="86.37379435850772" width="395.52"><g id="textblocktransform"><svg viewBox="0 0 395.52 86.37379435850772" height="86.37379435850772" width="395.52" id="textblock"><g><svg viewBox="0 0 395.52 86.37379435850772" height="86.37379435850772" width="395.52"><g transform="matrix(1,0,0,1,0,0)"><svg width="395.52" viewBox="1.25 -35.5 164.8300018310547 36" height="86.37379435850772" data-palette-color="#7a26c1"><path d="M7.85 0.5L7.85 0.5Q4.4 0.5 2.83-0.48 1.25-1.45 1.25-2.5L1.25-2.5Q1.25-3.1 1.5-3.93 1.75-4.75 2.3-5.4L2.3-5.4Q3.1-4.65 4.38-4.15 5.65-3.65 7.45-3.65L7.45-3.65Q10.1-3.65 11.23-5.05 12.35-6.45 12.35-8.75L12.35-8.75Q12.35-10.45 11.73-11.9 11.1-13.35 9.45-15.25L9.45-15.25 4.45-21.1Q2.75-23.2 2.02-24.88 1.3-26.55 1.3-28.35L1.3-28.35Q1.3-31.5 3.53-33.5 5.75-35.5 9.9-35.5L9.9-35.5Q13.45-35.5 14.95-34.77 16.45-34.05 16.45-33L16.45-33Q16.45-32.5 16.2-31.88 15.95-31.25 15.45-30.7L15.45-30.7Q14.95-31.05 13.63-31.48 12.3-31.9 10.55-31.9L10.55-31.9Q8.3-31.9 6.98-31 5.65-30.1 5.65-28.45L5.65-28.45Q5.65-27.1 6.28-25.98 6.9-24.85 8-23.5L8-23.5 13.4-17.35Q15.35-15.05 16.05-13.15 16.75-11.25 16.75-8.9L16.75-8.9Q16.75-6.4 15.93-4.25 15.1-2.1 13.18-0.8 11.25 0.5 7.85 0.5ZM32.1 0L32.1 0 32.1-34.2Q32.1-34.6 32.27-34.75 32.45-34.9 33.27-34.95 34.1-35 36.15-35L36.15-35 36.15-0.8Q36.15-0.4 36-0.25 35.85-0.1 35-0.05 34.15 0 32.1 0ZM20.1 0L20.1 0 20.1-34.2Q20.1-34.6 20.25-34.75 20.4-34.9 21.25-34.95 22.1-35 24.15-35L24.15-35 24.15-0.8Q24.15-0.4 24-0.25 23.85-0.1 23-0.05 22.15 0 20.1 0ZM33.95-16.95L22.1-16.95 22.1-20.75 33.95-20.75 33.95-16.95ZM41.15 0.1L41.15 0.1Q40.75 0.1 40.05 0.05 39.35 0 38.6-0.05L38.6-0.05 47.5-34.45Q47.65-35.15 49.05-35.15L49.05-35.15Q49.55-35.15 50.07-35.1 50.6-35.05 50.95-35L50.95-35 59.9-0.75Q60-0.35 59.67-0.13 59.35 0.1 58.15 0.1L58.15 0.1Q57.7 0.1 57.12 0.08 56.55 0.05 55.75 0L55.75 0 51.05-19.7Q50.65-21.4 50.3-23.15 49.95-24.9 49.67-26.53 49.4-28.15 49.3-29.35L49.3-29.35Q49.2-28.15 48.92-26.53 48.65-24.9 48.3-23.15 47.95-21.4 47.5-19.7L47.5-19.7 43.05-0.7Q42.95-0.3 42.65-0.1 42.35 0.1 41.15 0.1ZM55.7-8.9L43.75-8.9 43.75-12.6 55.7-12.6 55.7-8.9ZM67.74 0.5L67.74 0.5Q64.29 0.5 62.72-0.48 61.14-1.45 61.14-2.5L61.14-2.5Q61.14-3.1 61.39-3.93 61.64-4.75 62.19-5.4L62.19-5.4Q62.99-4.65 64.27-4.15 65.54-3.65 67.34-3.65L67.34-3.65Q69.99-3.65 71.12-5.05 72.24-6.45 72.24-8.75L72.24-8.75Q72.24-10.45 71.62-11.9 70.99-13.35 69.34-15.25L69.34-15.25 64.34-21.1Q62.64-23.2 61.92-24.88 61.19-26.55 61.19-28.35L61.19-28.35Q61.19-31.5 63.42-33.5 65.64-35.5 69.79-35.5L69.79-35.5Q73.34-35.5 74.84-34.77 76.34-34.05 76.34-33L76.34-33Q76.34-32.5 76.09-31.88 75.84-31.25 75.34-30.7L75.34-30.7Q74.84-31.05 73.52-31.48 72.19-31.9 70.44-31.9L70.44-31.9Q68.19-31.9 66.87-31 65.54-30.1 65.54-28.45L65.54-28.45Q65.54-27.1 66.17-25.98 66.79-24.85 67.89-23.5L67.89-23.5 73.29-17.35Q75.24-15.05 75.94-13.15 76.64-11.25 76.64-8.9L76.64-8.9Q76.64-6.4 75.82-4.25 74.99-2.1 73.07-0.8 71.14 0.5 67.74 0.5ZM91.99 0L91.99 0 91.99-34.2Q91.99-34.6 92.17-34.75 92.34-34.9 93.17-34.95 93.99-35 96.04-35L96.04-35 96.04-0.8Q96.04-0.4 95.89-0.25 95.74-0.1 94.89-0.05 94.04 0 91.99 0ZM79.99 0L79.99 0 79.99-34.2Q79.99-34.6 80.14-34.75 80.29-34.9 81.14-34.95 81.99-35 84.04-35L84.04-35 84.04-0.8Q84.04-0.4 83.89-0.25 83.74-0.1 82.89-0.05 82.04 0 79.99 0ZM93.84-16.95L81.99-16.95 81.99-20.75 93.84-20.75 93.84-16.95ZM120.79 0.4L120.79 0.4Q119.89 0.4 119.39-0.38 118.89-1.15 118.59-2.45L118.59-2.45 116.04-13.7Q115.84-14.9 115.56-16.75 115.29-18.6 115.04-20.6 114.79-22.6 114.59-24.35 114.39-26.1 114.26-27.2 114.14-28.3 114.14-28.3L114.14-28.3 112.94-32.15Q112.79-32.8 112.99-33.05 113.19-33.3 113.79-33.3L113.79-33.3 116.49-33.3 119.99-15.65Q120.44-13.4 120.71-11.45 120.99-9.5 121.16-7.78 121.34-6.05 121.49-4.45L121.49-4.45 121.79-4.45Q121.94-6.8 122.26-9.8 122.59-12.8 123.04-15.65L123.04-15.65 126.24-33.8Q126.34-34.4 126.54-34.7 126.74-35 127.29-35L127.29-35 130.74-35 124.19 0.15Q123.49 0.2 123.01 0.28 122.54 0.35 122.06 0.38 121.59 0.4 120.79 0.4ZM106.59 0.35L106.59 0.35Q105.84 0.35 105.31-0.53 104.79-1.4 104.54-2.75L104.54-2.75Q104.14-4.85 103.51-7.9 102.89-10.95 102.21-14.45 101.54-17.95 100.91-21.38 100.29-24.8 99.74-27.63 99.19-30.45 98.89-32.13 98.59-33.8 98.59-33.8L98.59-33.8Q98.44-34.45 98.59-34.73 98.74-35 99.44-35L99.44-35 102.79-35 106.39-15.65Q106.79-13.4 107.06-11.43 107.34-9.45 107.54-7.73 107.74-6 107.89-4.4L107.89-4.4 108.19-4.4Q108.34-7.4 108.66-10.18 108.99-12.95 109.49-15.65L109.49-15.65 112.54-32.1Q112.64-32.75 112.81-33.02 112.99-33.3 113.59-33.3L113.59-33.3 115.34-33.3Q116.14-33.3 116.21-33 116.29-32.7 116.19-32.15L116.19-32.15 114.84-28.25Q114.84-28.25 114.71-27.15 114.59-26.05 114.39-24.33 114.19-22.6 113.96-20.63 113.74-18.65 113.49-16.8 113.24-14.95 113.04-13.75L113.04-13.75 110.29 0.15Q109.39 0.25 108.61 0.3 107.84 0.35 106.59 0.35ZM131.44 0.1L131.44 0.1Q131.04 0.1 130.34 0.05 129.64 0 128.89-0.05L128.89-0.05 137.79-34.45Q137.94-35.15 139.34-35.15L139.34-35.15Q139.84-35.15 140.36-35.1 140.89-35.05 141.24-35L141.24-35 150.19-0.75Q150.29-0.35 149.96-0.13 149.64 0.1 148.44 0.1L148.44 0.1Q147.99 0.1 147.41 0.08 146.84 0.05 146.04 0L146.04 0 141.34-19.7Q140.94-21.4 140.59-23.15 140.24-24.9 139.96-26.53 139.69-28.15 139.59-29.35L139.59-29.35Q139.49-28.15 139.21-26.53 138.94-24.9 138.59-23.15 138.24-21.4 137.79-19.7L137.79-19.7 133.34-0.7Q133.24-0.3 132.94-0.1 132.64 0.1 131.44 0.1ZM145.99-8.9L134.04-8.9 134.04-12.6 145.99-12.6 145.99-8.9ZM155.03 0L155.03 0 155.03-34.4Q155.03-34.4 155.13-34.48 155.23-34.55 155.83-34.55L155.83-34.55 158.23-34.55Q158.88-34.55 158.98-34.48 159.08-34.4 159.08-34.4L159.08-34.4 159.08-0.8Q159.08-0.4 158.91-0.25 158.73-0.1 157.88-0.05 157.03 0 155.03 0ZM165.23-31.2L148.23-31.2 148.23-34.2Q148.23-35 149.08-35L149.08-35 166.08-35 166.08-32Q166.08-31.55 165.88-31.38 165.68-31.2 165.23-31.2L165.23-31.2Z" opacity="1" transform="matrix(1,0,0,1,0,0)" fill="#7a26c1" class="undefined-text-0" data-fill-palette-color="primary" id="text-0"></path></svg></g></svg></g></svg></g></svg></g><g transform="matrix(1,0,0,1,143.5773353758023,0)"><svg viewBox="0 0 108.36532924839538 119.3685838034577" height="119.3685838034577" width="108.36532924839538"><g><svg xmlns="http://www.w3.org/2000/svg" xmlns:xlink="http://www.w3.org/1999/xlink" version="1.1" x="8" y="0" viewBox="12.982999801635742 1 75.68599700927734 97.81300354003906" enable-background="new 0 0 100 100" xml:space="preserve" height="119.3685838034577" width="92.36532924839538" class="icon-icon-0" data-fill-palette-color="accent" id="icon-0"><g fill="#a437db" data-fill-palette-color="accent"><polygon fill-rule="evenodd" clip-rule="evenodd" points="12.983,10.59 30.001,98.813 24.129,39.764 53.15,37.872 53.096,27.989    64.549,1 53.622,18.977  " fill="#a437db" data-fill-palette-color="accent"></polygon><polygon fill-rule="evenodd" clip-rule="evenodd" points="59.389,54.548 64.549,1.007 55.809,40.723 36.197,41.768 37.767,62.23    30.001,98.813 42.058,58.914  " fill="#a437db" data-fill-palette-color="accent"></polygon><polygon fill-rule="evenodd" clip-rule="evenodd" points="62.8,67.182 63.349,56.729 47.37,60.484 47.338,72.281 30.001,98.813    51.681,71.197  " fill="#a437db" data-fill-palette-color="accent"></polygon><polygon fill-rule="evenodd" clip-rule="evenodd" points="65.711,62.394 80.552,57.663 82.061,45.131 66.162,47.226  " fill="#a437db" data-fill-palette-color="accent"></polygon><polygon fill-rule="evenodd" clip-rule="evenodd" points="72.07,44.502 83.058,43.085 84.639,32.807 76.56,32.434 64.549,1    72.979,31.967  " fill="#a437db" data-fill-palette-color="accent"></polygon><polygon fill-rule="evenodd" clip-rule="evenodd" points="87.413,31.294 88.669,21.788 79.125,19.094 64.549,1 79.032,23.437    78.61,30.437  " fill="#a437db" data-fill-palette-color="accent"></polygon></g></svg></g></svg></g><g><rect width="143.5773353758023" height="7.789277913006005" y="110.57930589045168" x="251.94266462419768" fill="#a437db" data-fill-palette-color="accent"></rect><rect width="143.5773353758023" height="7.789277913006005" y="110.57930589045168" x="0" fill="#a437db" data-fill-palette-color="accent"></rect><rect width="143.5773353758023" height="7.789277913006005" y="95.00075006443967" x="251.94266462419768" fill="#a437db" data-fill-palette-color="accent"></rect><rect width="143.5773353758023" height="7.789277913006005" y="95.00075006443967" x="0" fill="#a437db" data-fill-palette-color="accent"></rect></g></svg></g><defs></defs></svg><rect width="395.52" height="226.1331580389445" fill="none" stroke="none" visibility="hidden"></rect></g></svg></g></svg>